<svg version="1.1" id="Layer_1" xmlns="http://www.w3.org/2000/svg" xmlns:xlink="http://www.w3.org/1999/xlink" x="0px" y="0px" viewBox="0 0 37.400002 14" enable-background="new 0 0 37.400002 14" xml:space="preserve">
<g>
	<path fill="#DD3327" d="M34.400002,14H3c-1.656854,0-3-1.343145-3-3V3c0-1.656854,1.343146-3,3-3h31.400002   c1.656853,0,3,1.343146,3,3v8C37.400002,12.656855,36.056854,14,34.400002,14z"/>
</g>
<g>
	<g>
		<g enable-background="new    ">
			<path fill="#FFFFFF" d="M25.87207,3.003113v7.995117h-1.59668V5.764832h-0.568359h-0.569336h-0.551758h-0.191406v-1.15918     c0.389648-0.011719,0.708008-0.051758,0.954102-0.121094c0.246094-0.068359,0.470703-0.181641,0.674805-0.338867     c0.295898-0.225586,0.494141-0.606445,0.59668-1.142578H25.87207z"/>
		</g>
	</g>
	<g id="layer1_22_">
		<path id="path3360_25_" fill="#FFFFFF" d="M6.483562,2.999576h2.281524l-3.47247,8H2.999527L6.483562,2.999576z"/>
		<path id="path3364_22_" fill="#FFFFFF" d="M9.877872,2.999576h8.220896l-0.926394,2.166212h-5.899094L9.650765,8.833364h5.902162    l-0.926078,2.166212H6.405874L9.877872,2.999576z"/>
	</g>
</g>
</svg>