<svg version="1.1" id="Layer_1" xmlns="http://www.w3.org/2000/svg" xmlns:xlink="http://www.w3.org/1999/xlink" x="0px" y="0px" viewBox="0 0 37.400002 14" enable-background="new 0 0 37.400002 14" xml:space="preserve">
<g>
	<path fill="#FFC909" d="M34.400002,14H3c-1.656854,0-3-1.343145-3-3V3c0-1.656854,1.343146-3,3-3h31.400002   c1.656853,0,3,1.343146,3,3v8C37.400002,12.656855,36.056854,14,34.400002,14z"/>
</g>
<g>
	<g>
		<g enable-background="new    ">
			<path fill="#181816" d="M27.518555,9.576355v1.421875h-5.758789c0-0.433594,0.070312-0.847656,0.210938-1.241211     c0.139648-0.393555,0.337891-0.733398,0.592773-1.017578c0.197266-0.21875,0.427734-0.431641,0.692383-0.639648     c0.263672-0.208008,0.790039-0.588867,1.577148-1.142578c0.382812-0.266602,0.651367-0.514648,0.803711-0.744141     c0.15332-0.229492,0.230469-0.496094,0.230469-0.798828c0-0.349609-0.103516-0.632812-0.30957-0.849609     s-0.476562-0.326172-0.811523-0.326172c-0.824219,0-1.249023,0.592773-1.274414,1.777344H21.93457     c0-0.076172,0-0.134766,0-0.174805c0-0.969727,0.271484-1.720703,0.81543-2.25293     c0.52832-0.517578,1.211914-0.776367,2.050781-0.776367c0.743164,0,1.365234,0.210938,1.864258,0.633789     c0.542969,0.459961,0.81543,1.078125,0.81543,1.854492c0,0.677734-0.217773,1.261719-0.651367,1.75     C26.6875,7.210144,26.553711,7.33905,26.429688,7.43573s-0.450195,0.329102-0.978516,0.697266     c-0.50293,0.349609-0.863281,0.617188-1.080078,0.803711c-0.216797,0.185547-0.417969,0.399414-0.604492,0.639648H27.518555z"/>
			<path fill="#181816" d="M32.101562,3.003113v7.995117h-1.59668V5.764832h-0.569336h-0.568359h-0.552734h-0.191406v-1.15918     c0.390625-0.011719,0.708008-0.051758,0.954102-0.121094c0.246094-0.068359,0.47168-0.181641,0.675781-0.338867     c0.294922-0.225586,0.494141-0.606445,0.595703-1.142578H32.101562z"/>
		</g>
	</g>
	<g id="layer1_26_">
		<path id="path3360_29_" fill="#181816" d="M6.483562,2.999576h2.281524l-3.47247,8H2.999527L6.483562,2.999576z"/>
		<path id="path3364_27_" fill="#181816" d="M9.877872,2.999576h8.220896l-0.926394,2.166212h-5.899094L9.650765,8.833364h5.902162    l-0.926078,2.166212H6.405874L9.877872,2.999576z"/>
	</g>
</g>
</svg>