<svg version="1.1" id="Layer_1" xmlns="http://www.w3.org/2000/svg" xmlns:xlink="http://www.w3.org/1999/xlink" x="0px" y="0px" viewBox="0 0 37.400002 14" enable-background="new 0 0 37.400002 14" xml:space="preserve">
<g>
	<path fill="#048C45" d="M34.400002,14H3c-1.656854,0-3-1.343145-3-3V3c0-1.656854,1.343146-3,3-3h31.400002   c1.656853,0,3,1.343146,3,3v8C37.400002,12.656855,36.056854,14,34.400002,14z"/>
</g>
<g>
	<g>
		<g enable-background="new    ">
			<path fill="#FFFFFF" d="M21.929688,5.535339c0.017578-0.65625,0.179688-1.207031,0.486328-1.652344     c0.496094-0.713867,1.241211-1.071289,2.236328-1.071289c0.765625,0,1.383789,0.195312,1.854492,0.584961     c0.506836,0.422852,0.759766,0.969727,0.759766,1.640625c0,0.401367-0.099609,0.746094-0.297852,1.036133     s-0.467773,0.486328-0.806641,0.587891c0.430664,0.098633,0.770508,0.317383,1.019531,0.65625     c0.25,0.338867,0.375,0.749023,0.375,1.230469c0,0.791016-0.291992,1.438477-0.875,1.941406     c-0.540039,0.466797-1.22168,0.700195-2.044922,0.700195c-0.893555,0-1.601562-0.256836-2.125-0.771484     c-0.523438-0.513672-0.785156-1.208008-0.785156-2.083008c0-0.018555,0-0.052734,0-0.104492h1.537109     c0,0.492188,0.116211,0.873047,0.349609,1.140625s0.563477,0.402344,0.990234,0.402344s0.754883-0.125977,0.984375-0.37793     c0.211914-0.236328,0.317383-0.519531,0.317383-0.847656c0-0.393555-0.134766-0.705078-0.405273-0.93457     c-0.22168-0.189453-0.564453-0.285156-1.027344-0.285156c-0.131836,0-0.260742,0.007812-0.388672,0.022461V6.174988     c0.094727,0.006836,0.185547,0.010742,0.273438,0.010742c0.918945,0,1.37793-0.34082,1.37793-1.022461     c0-0.298828-0.099609-0.541016-0.300781-0.724609c-0.200195-0.18457-0.464844-0.276367-0.792969-0.276367     c-0.375,0-0.665039,0.117188-0.869141,0.349609c-0.204102,0.233398-0.313477,0.574219-0.328125,1.023438H21.929688z"/>
		</g>
	</g>
	<g id="layer1_30_">
		<path id="path3360_44_" fill="#FFFFFF" d="M6.483562,2.999576h2.281524l-3.47247,8H2.999527L6.483562,2.999576z"/>
		<path id="path3364_39_" fill="#FFFFFF" d="M9.877872,2.999576h8.220896l-0.926394,2.166212h-5.899094L9.650765,8.833364h5.902162    l-0.926078,2.166212H6.405874L9.877872,2.999576z"/>
	</g>
</g>
</svg>