<?xml version="1.0" encoding="utf-8"?>
<!-- Generator: Adobe Illustrator 25.0.1, SVG Export Plug-In . SVG Version: 6.00 Build 0)  -->
<svg version="1.1" id="Layer_1" xmlns="http://www.w3.org/2000/svg" xmlns:xlink="http://www.w3.org/1999/xlink" x="0px" y="0px"
	 viewBox="0 0 37.400002 14" enable-background="new 0 0 37.400002 14" xml:space="preserve">
<g>
	<path fill="#AD1F23" d="M34.400002,14H3c-1.656854,0-3-1.343145-3-3V3c0-1.656854,1.343146-3,3-3h31.400002
		c1.656853,0,3,1.343146,3,3v8C37.400002,12.656855,36.056854,14,34.400002,14z"/>
</g>
<g>
	<g>
		<g enable-background="new    ">
			<path fill="#FFFFFF" d="M27.119141,3.003113v1.421875h-3.220703l-0.344727,1.798828
				c0.386719-0.408203,0.879883-0.612305,1.481445-0.612305c0.59082,0,1.105469,0.158203,1.542969,0.475586
				c0.648438,0.477539,0.972656,1.203125,0.972656,2.176758c0,0.955078-0.345703,1.711914-1.039062,2.269531
				c-0.539062,0.4375-1.18457,0.65625-1.935547,0.65625c-0.845703,0-1.525391-0.226562-2.040039-0.680664
				c-0.513672-0.454102-0.785156-1.067383-0.814453-1.84082h1.569336c0.025391,0.28125,0.116211,0.519531,0.273438,0.716797
				c0.244141,0.30957,0.583008,0.464844,1.017578,0.464844c0.418945,0,0.750977-0.151367,0.995117-0.454102
				c0.236328-0.294922,0.355469-0.654297,0.355469-1.077148c0-0.458984-0.124023-0.826172-0.37207-1.101562
				s-0.578125-0.413086-0.990234-0.413086c-0.50293,0-0.894531,0.225586-1.175781,0.677734l-1.426758-0.021484l0.759766-4.457031
				H27.119141z"/>
			<path fill="#FFFFFF" d="M32.101562,3.003113v7.995117h-1.59668V5.764832h-0.569336h-0.568359h-0.552734h-0.191406v-1.15918
				c0.390625-0.011719,0.708008-0.051758,0.954102-0.121094c0.246094-0.068359,0.47168-0.181641,0.675781-0.338867
				c0.294922-0.225586,0.494141-0.606445,0.595703-1.142578H32.101562z"/>
		</g>
	</g>
	<g id="layer1_5_">
		<path id="path3360_7_" fill="#FFFFFF" d="M6.483562,2.999576h2.281524l-3.47247,8H2.999527L6.483562,2.999576z"/>
		<path id="path3364_5_" fill="#FFFFFF" d="M9.877872,2.999576h8.220896l-0.926394,2.166212h-5.899094L9.650765,8.833364h5.902162
			l-0.926078,2.166212H6.405874L9.877872,2.999576z"/>
	</g>
</g>
</svg>
