<svg version="1.1" id="Layer_1" xmlns="http://www.w3.org/2000/svg" xmlns:xlink="http://www.w3.org/1999/xlink" x="0px" y="0px" viewBox="0 0 37.400002 14" enable-background="new 0 0 37.400002 14" xml:space="preserve">
<g>
	<path fill="#93C13E" d="M34.400002,14H3c-1.656854,0-3-1.343145-3-3V3c0-1.656854,1.343146-3,3-3h31.400002   c1.656853,0,3,1.343146,3,3v8C37.400002,12.656855,36.056854,14,34.400002,14z"/>
</g>
<g>
	<g>
		<g enable-background="new    ">
			<path fill="#FFFFFF" d="M27.381836,4.999207h-1.520508c-0.142578-0.616211-0.492188-0.924805-1.049805-0.924805     c-0.59082,0-1.009766,0.363281-1.257812,1.088867c-0.102539,0.294922-0.18457,0.742188-0.246094,1.339844     c0.240234-0.324219,0.496094-0.557617,0.768555-0.700195c0.271484-0.142578,0.598633-0.212891,0.981445-0.212891     c0.750977,0,1.354492,0.265625,1.80957,0.797852c0.43457,0.50293,0.651367,1.133789,0.651367,1.892578     c0,0.900391-0.291992,1.624023-0.875,2.170898c-0.525391,0.492188-1.15625,0.738281-1.892578,0.738281     c-0.944336,0-1.678711-0.356445-2.204102-1.069336c-0.524414-0.712891-0.787109-1.707031-0.787109-2.983398     c0-1.363281,0.280273-2.431641,0.841797-3.204102c0.543945-0.74707,1.285156-1.121094,2.226562-1.121094     c0.885742,0,1.563477,0.296875,2.03418,0.891602C27.131836,4.046082,27.304688,4.477722,27.381836,4.999207z M24.674805,6.831238     c-0.382812,0-0.6875,0.160156-0.913086,0.481445c-0.204102,0.28418-0.306641,0.623047-0.306641,1.016602     c0,0.390625,0.103516,0.731445,0.311523,1.022461c0.226562,0.325195,0.536133,0.487305,0.929688,0.487305     c0.382812,0,0.691406-0.155273,0.924805-0.464844c0.21875-0.291992,0.328125-0.636719,0.328125-1.03418     c0-0.389648-0.098633-0.723633-0.295898-1C25.413086,7.000183,25.086914,6.831238,24.674805,6.831238z"/>
		</g>
	</g>
	<g id="layer1_10_">
		<path id="path3360_12_" fill="#FFFFFF" d="M6.483562,2.999576h2.281524l-3.47247,8H2.999527L6.483562,2.999576z"/>
		<path id="path3364_10_" fill="#FFFFFF" d="M9.877872,2.999576h8.220896l-0.926394,2.166212h-5.899094L9.650765,8.833364h5.902162    l-0.926078,2.166212H6.405874L9.877872,2.999576z"/>
	</g>
</g>
</svg>