<svg version="1.1" id="Layer_1" xmlns="http://www.w3.org/2000/svg" xmlns:xlink="http://www.w3.org/1999/xlink" x="0px" y="0px" viewBox="0 0 37.400002 14" enable-background="new 0 0 37.400002 14" xml:space="preserve">
<g>
	<path fill="#1A8FCE" d="M34.400002,14H3c-1.656854,0-3-1.343145-3-3V3c0-1.656854,1.343146-3,3-3h31.400002   c1.656853,0,3,1.343146,3,3v8C37.400002,12.656855,36.056854,14,34.400002,14z"/>
</g>
<g>
	<g>
		<g enable-background="new    ">
			<path fill="#FFFFFF" d="M23.148438,6.705261c-0.371094-0.12793-0.657227-0.336914-0.855469-0.628906     s-0.297852-0.645508-0.297852-1.060547c0-0.693359,0.28418-1.245117,0.852539-1.657227     c0.503906-0.364258,1.101562-0.546875,1.793945-0.546875c0.788086,0,1.431641,0.216797,1.930664,0.650391     c0.473633,0.408203,0.710938,0.913086,0.710938,1.514648c0,0.419922-0.100586,0.779297-0.300781,1.078125     s-0.485352,0.515625-0.853516,0.650391c0.288086,0.083984,0.523438,0.191406,0.706055,0.322266     c0.506836,0.369141,0.759766,0.90625,0.759766,1.613281c0,0.813477-0.311523,1.460938-0.93457,1.941406     c-0.525391,0.405273-1.200195,0.607422-2.023438,0.607422c-0.893555,0-1.604492-0.222656-2.132812-0.666992     c-0.550781-0.462891-0.826172-1.070312-0.826172-1.821289c0-0.703125,0.244141-1.249023,0.732422-1.634766     C22.632812,6.894714,22.878906,6.774597,23.148438,6.705261z M24.609375,7.306824c-0.394531,0-0.71582,0.121094-0.96582,0.363281     c-0.25,0.243164-0.374023,0.553711-0.374023,0.932617c0,0.390625,0.125977,0.708008,0.379883,0.952148     c0.25293,0.244141,0.582031,0.366211,0.987305,0.366211c0.458984,0,0.803711-0.134766,1.033203-0.405273     c0.222656-0.258789,0.333984-0.557617,0.333984-0.896484c0-0.386719-0.12793-0.703125-0.382812-0.951172     C25.375977,7.426941,25.039062,7.306824,24.609375,7.306824z M24.620117,4.052917     c-0.350586,0-0.632812,0.097656-0.847656,0.292969c-0.214844,0.194336-0.323242,0.451172-0.323242,0.767578     c0,0.332031,0.108398,0.597656,0.326172,0.795898c0.216797,0.199219,0.506836,0.297852,0.87207,0.297852     c0.364258,0,0.652344-0.097656,0.864258-0.294922c0.210938-0.197266,0.316406-0.464844,0.316406-0.803711     c0-0.332031-0.106445-0.59082-0.319336-0.776367C25.294922,4.145691,24.999023,4.052917,24.620117,4.052917z"/>
		</g>
	</g>
	<g id="layer1_9_">
		<path id="path3360_11_" fill="#FFFFFF" d="M6.483562,2.999576h2.281524l-3.47247,8H2.999527L6.483562,2.999576z"/>
		<path id="path3364_9_" fill="#FFFFFF" d="M9.877872,2.999576h8.220896l-0.926394,2.166212h-5.899094L9.650765,8.833364h5.902162    l-0.926078,2.166212H6.405874L9.877872,2.999576z"/>
	</g>
</g>
</svg>