<svg version="1.1" id="Layer_2" xmlns="http://www.w3.org/2000/svg" xmlns:xlink="http://www.w3.org/1999/xlink" x="0px" y="0px" viewBox="0 0 37.400002 14" enable-background="new 0 0 37.400002 14" xml:space="preserve">
<g>
	<path fill="#7DA9C0" d="M34.406357,14.003565h-31.4c-1.656854,0-3-1.343145-3-3v-8c0-1.656854,1.343146-3,3-3h31.4   c1.656857,0,3,1.343146,3,3v8C37.406357,12.660419,36.063213,14.003565,34.406357,14.003565z"/>
</g>
<g>
	<g>
		<g>
			<path fill="#FFFFFF" d="M23.155273,6.708679c-0.37207-0.12793-0.657227-0.336914-0.855469-0.628906     c-0.199219-0.291992-0.298828-0.645508-0.298828-1.060547c0-0.693359,0.285156-1.245117,0.853516-1.657227     c0.50293-0.364258,1.100586-0.546875,1.793945-0.546875c0.787109,0,1.430664,0.216797,1.930664,0.650391     c0.473633,0.408203,0.710938,0.913086,0.710938,1.514648c0,0.419922-0.100586,0.779297-0.300781,1.078125     c-0.201172,0.298828-0.485352,0.515625-0.853516,0.650391c0.288086,0.083984,0.523438,0.191406,0.705078,0.322266     c0.506836,0.369141,0.760742,0.90625,0.760742,1.612793c0,0.813477-0.311523,1.460938-0.935547,1.941406     c-0.524414,0.405273-1.199219,0.607422-2.023438,0.607422c-0.893555,0-1.604492-0.222656-2.132812-0.666992     c-0.550781-0.462891-0.825195-1.070312-0.825195-1.821289c0-0.702637,0.244141-1.248535,0.732422-1.634277     C22.639648,6.898132,22.885742,6.778015,23.155273,6.708679z M24.615234,7.310242     c-0.393555,0-0.71582,0.121094-0.964844,0.363281c-0.25,0.243164-0.375,0.553711-0.375,0.932129     c0,0.390625,0.126953,0.708008,0.379883,0.952148c0.253906,0.244141,0.583008,0.366211,0.987305,0.366211     c0.459961,0,0.803711-0.134766,1.03418-0.405273c0.22168-0.258789,0.333008-0.557617,0.333008-0.896484     c0-0.38623-0.12793-0.702637-0.382812-0.950684C25.382812,7.430359,25.045898,7.310242,24.615234,7.310242z M24.625977,4.056335     c-0.349609,0-0.631836,0.097656-0.847656,0.292969c-0.214844,0.194336-0.322266,0.451172-0.322266,0.767578     c0,0.332031,0.108398,0.597656,0.325195,0.795898c0.216797,0.199219,0.507812,0.297852,0.87207,0.297852     c0.365234,0,0.65332-0.097656,0.864258-0.294922c0.211914-0.197266,0.317383-0.464844,0.317383-0.803711     c0-0.332031-0.106445-0.59082-0.320312-0.776367C25.301758,4.149109,25.005859,4.056335,24.625977,4.056335z"/>
			<path fill="#FFFFFF" d="M32.107422,3.006531v7.994629h-1.59668V5.76825h-0.568359h-0.569336h-0.551758h-0.191406V4.60907     c0.389648-0.011719,0.708008-0.051758,0.954102-0.121094c0.246094-0.068359,0.470703-0.181641,0.674805-0.338867     c0.295898-0.225586,0.494141-0.606445,0.59668-1.142578H32.107422z"/>
		</g>
	</g>
	<g id="layer1_00000127738464784450976410000010110851870004304042_">
		<path id="path3360_00000160154930011935960230000005257577755987111811_" fill="#FFFFFF" d="M6.48992,3.003141h2.281523    l-3.472469,8H3.005885L6.48992,3.003141z"/>
		<path id="path3364_00000171718875909997259900000000439070391569579444_" fill="#FFFFFF" d="M9.884231,3.003141h8.220895    l-0.926394,2.166213h-5.899093L9.657124,8.836928h5.902161l-0.926079,2.166213H6.412232L9.884231,3.003141z"/>
	</g>
</g>
</svg>