<svg version="1.1" id="Layer_1" xmlns="http://www.w3.org/2000/svg" xmlns:xlink="http://www.w3.org/1999/xlink" x="0px" y="0px" viewBox="0 0 37.400002 14" enable-background="new 0 0 37.400002 14" xml:space="preserve">
<g>
	<path fill="#565655" d="M34.400002,14H3c-1.656854,0-3-1.343145-3-3V3c0-1.656854,1.343146-3,3-3h31.400002   c1.656853,0,3,1.343146,3,3v8C37.400002,12.656855,36.056854,14,34.400002,14z"/>
</g>
<g>
	<g enable-background="new    ">
		<path fill="#FFFFFF" d="M5.526855,3.086609v7.995605H3.782715V3.086609H5.526855z"/>
		<path fill="#FFFFFF" d="M14.17334,7.99823c-0.058594,0.827148-0.335449,1.53418-0.831543,2.121094    c-0.648926,0.769531-1.567383,1.154297-2.755859,1.154297c-1.265137,0-2.249512-0.446289-2.953125-1.339844    C7.03125,9.172058,6.730469,8.21991,6.730469,7.078796c0-1.196289,0.356934-2.193359,1.071777-2.991211    c0.714355-0.794922,1.664062-1.192383,2.849121-1.192383c1.104492,0,1.994141,0.364258,2.668945,1.09375    c0.480957,0.513672,0.74707,1.106445,0.79834,1.777344h-1.722656c-0.094727-0.452148-0.297363-0.801758-0.606934-1.047852    c-0.310059-0.246094-0.702148-0.369141-1.175781-0.369141c-0.758789,0-1.325684,0.319336-1.701172,0.957031    C8.631348,5.791687,8.491211,6.386414,8.491211,7.089539c0,0.72168,0.147461,1.32373,0.442871,1.805176    c0.375488,0.616211,0.931641,0.923828,1.667969,0.923828c0.524902,0,0.943359-0.154297,1.255371-0.464844    c0.311523-0.30957,0.503906-0.761719,0.57666-1.355469H14.17334z"/>
		<path fill="#FFFFFF" d="M21.375,3.086609v1.476562h-4.254395v1.706055h3.898926v1.373047h-3.898926v1.963379h4.330566v1.476562    h-6.075195V3.086609H21.375z"/>
	</g>
</g>
</svg>