<svg version="1.1" id="Layer_1" xmlns="http://www.w3.org/2000/svg" xmlns:xlink="http://www.w3.org/1999/xlink" x="0px" y="0px" viewBox="0 0 37.400002 14" enable-background="new 0 0 37.400002 14" xml:space="preserve">
<g>
	<path fill="#565655" d="M34.400002,14H3c-1.656854,0-3-1.343145-3-3V3c0-1.656854,1.343146-3,3-3h31.400002   c1.656853,0,3,1.343146,3,3v8C37.400002,12.656855,36.056854,14,34.400002,14z"/>
</g>
<g>
	<g enable-background="new    ">
		<path fill="#FFFFFF" d="M5.526855,3.086609v7.995605H3.782715V3.086609H5.526855z"/>
		<path fill="#FFFFFF" d="M7.036621,3.086609h3.871582c0.765625,0,1.352539,0.120117,1.76123,0.360352    c0.338867,0.197266,0.597656,0.459961,0.776367,0.788086s0.268066,0.698242,0.268066,1.110352    c0,0.466797-0.112305,0.873047-0.336426,1.21875c-0.224121,0.34668-0.536621,0.594727-0.937988,0.744141    c0.354004,0.087891,0.630859,0.28418,0.831543,0.591309c0.127441,0.193359,0.213379,0.395508,0.256836,0.606445    c0.043945,0.211914,0.100098,0.695312,0.169434,1.449219c0.05127,0.554688,0.129395,0.899414,0.235352,1.03418l0.07666,0.092773    h-1.821289c-0.062012-0.113281-0.106445-0.256836-0.133789-0.431641c-0.027344-0.175781-0.062988-0.580078-0.106934-1.214844    c-0.043457-0.564453-0.181152-0.956055-0.412598-1.172852s-0.626465-0.325195-1.184082-0.325195H8.78125v3.144531H7.036621    V3.086609z M8.78125,4.458679v2.199219h1.667969c0.535645,0,0.913086-0.077148,1.131836-0.230469    c0.276855-0.192383,0.415527-0.484375,0.415527-0.875c0-0.378906-0.118652-0.65625-0.355469-0.831055    s-0.61084-0.262695-1.121094-0.262695H8.78125z"/>
	</g>
</g>
</svg>