<svg version="1.1" id="Layer_1" xmlns="http://www.w3.org/2000/svg" xmlns:xlink="http://www.w3.org/1999/xlink" x="0px" y="0px" viewBox="0 0 37.4 14" style="enable-background:new 0 0 37.4 14;" xml:space="preserve">
<style type="text/css">
	.st0{fill:#2CAEB3;}
	.st1{enable-background:new    ;}
	.st2{fill:#FFFFFF;}
</style>
<g>
	<path class="st0" d="M34.4,14H3c-1.7,0-3-1.3-3-3V3c0-1.7,1.3-3,3-3h31.4c1.7,0,3,1.3,3,3v8C37.4,12.7,36.1,14,34.4,14z"/>
</g>
<g>
	<g>
		<g class="st1">
			<path class="st2" d="M25.9,3v8h-1.6V5.8h-0.6h-0.6h-0.6h-0.2V4.6c0.4,0,0.7-0.1,1-0.1c0.2-0.1,0.5-0.2,0.7-0.3     c0.3-0.2,0.5-0.6,0.6-1.1C24.6,3,25.9,3,25.9,3z"/>
			<path class="st2" d="M28.2,5.5c0-0.7,0.2-1.2,0.5-1.7c0.5-0.7,1.2-1.1,2.2-1.1c0.8,0,1.4,0.2,1.9,0.6s0.8,1,0.8,1.6     c0,0.4-0.1,0.7-0.3,1s-0.5,0.5-0.8,0.6c0.4,0.1,0.8,0.3,1,0.7s0.4,0.7,0.4,1.2c0,0.8-0.3,1.4-0.9,1.9c-0.5,0.5-1.2,0.7-2,0.7     c-0.9,0-1.6-0.3-2.1-0.8c-0.7-0.3-0.9-1-0.9-1.9V8.2h1.5c0,0.5,0.1,0.9,0.3,1.1s0.6,0.4,1,0.4s0.8-0.1,1-0.4     c0.2-0.2,0.3-0.5,0.3-0.8c0-0.4-0.1-0.7-0.4-0.9c-0.2-0.2-0.6-0.3-1-0.3c-0.1,0-0.3,0-0.4,0V6.2c0.1,0,0.2,0,0.3,0     c0.9,0,1.4-0.3,1.4-1c0-0.3-0.1-0.5-0.3-0.7c-0.2-0.2-0.5-0.3-0.8-0.3c-0.4,0-0.7,0.1-0.9,0.3c-0.2,0.2-0.3,0.6-0.3,1H28.2z"/>
		</g>
	</g>
	<g>
		<path id="path3360_52_" class="st2" d="M6.5,3h2.3l-3.5,8H3L6.5,3z"/>
		<path id="path3466_21_" class="st2" d="M15.2,8.6c0.3,0,0.5-0.1,0.6-0.4L18.1,3H9.9l-3.5,8h2.3l2.6-6h3.6l-0.8,1.9h-3l2.5,4.1H16    l-2-2.4H15.2z"/>
	</g>
</g>
</svg>