<svg version="1.1" id="Layer_1" xmlns="http://www.w3.org/2000/svg" xmlns:xlink="http://www.w3.org/1999/xlink" x="0px" y="0px" viewBox="0 0 37.400002 14" enable-background="new 0 0 37.400002 14" xml:space="preserve">
<g>
	<path fill="#294B95" d="M34.400002,14H3c-1.656854,0-3-1.343145-3-3V3c0-1.656854,1.343146-3,3-3h31.400002   c1.656853,0,3,1.343146,3,3v8C37.400002,12.656855,36.056854,14,34.400002,14z"/>
</g>
<g>
	<g>
		<g enable-background="new    ">
			<path fill="#FFFFFF" d="M25.888672,3.006042v7.995117h-1.59668V5.767761h-0.568359h-0.569336h-0.551758h-0.191406v-1.15918     c0.389648-0.011719,0.708008-0.051758,0.954102-0.121094c0.246094-0.068359,0.470703-0.181641,0.674805-0.338867     c0.295898-0.225586,0.494141-0.606445,0.59668-1.142578H25.888672z"/>
			<path fill="#FFFFFF" d="M33.567383,3.006042v1.356445c-0.043945,0.046875-0.173828,0.194336-0.388672,0.442383     c-0.298828,0.342773-0.595703,0.774414-0.891602,1.293945c-0.294922,0.519531-0.524414,1.017578-0.688477,1.495117     c-0.34668,0.995117-0.556641,2.130859-0.628906,3.407227h-1.651367c0.010742-0.601562,0.115234-1.268555,0.314453-2.001953     c0.198242-0.732422,0.472656-1.464844,0.822266-2.198242c0.5-1.035156,1.006836-1.806641,1.520508-2.313477h-3.773438V3.006042     H33.567383z"/>
		</g>
	</g>
	<g>
		<path id="path3360_37_" fill="#FFFFFF" d="M6.483409,3.001966h2.281423l-3.472317,7.99965H2.999527L6.483409,3.001966z"/>
		<path id="path3466_9_" fill="#FFFFFF" d="M15.213932,8.628384c0.2534,0,0.482906-0.149651,0.585084-0.381516l2.276122-5.245089    H9.878033l-3.472758,8h2.267262l2.629594-5.995276H14.921l-0.830625,1.912371L11.107417,6.91894l2.499856,4.082839    l2.444338-0.000265l-1.955362-2.373131H15.213932z"/>
	</g>
</g>
</svg>