<svg version="1.1" id="Layer_1" xmlns="http://www.w3.org/2000/svg" xmlns:xlink="http://www.w3.org/1999/xlink" x="0px" y="0px" viewBox="0 0 37.400002 14" enable-background="new 0 0 37.400002 14" xml:space="preserve">
<g>
	<path fill="#677231" d="M34.400002,14H3c-1.656854,0-3-1.343145-3-3V3c0-1.656854,1.343146-3,3-3h31.400002   c1.656853,0,3,1.343146,3,3v8C37.400002,12.656855,36.056854,14,34.400002,14z"/>
</g>
<g>
	<g>
		<g enable-background="new    ">
			<path fill="#FFFFFF" d="M27.535156,9.579285v1.421875h-5.758789c0-0.433594,0.070312-0.847656,0.210938-1.241211     c0.139648-0.393555,0.337891-0.733398,0.592773-1.017578c0.197266-0.21875,0.427734-0.431641,0.692383-0.639648     c0.263672-0.208008,0.790039-0.588867,1.577148-1.142578c0.382812-0.266602,0.651367-0.514648,0.803711-0.744141     c0.15332-0.229492,0.230469-0.496094,0.230469-0.798828c0-0.349609-0.103516-0.632812-0.30957-0.849609     s-0.476562-0.326172-0.811523-0.326172c-0.824219,0-1.249023,0.592773-1.274414,1.777344h-1.537109     c0-0.076172,0-0.134766,0-0.174805c0-0.969727,0.271484-1.720703,0.81543-2.25293     c0.52832-0.517578,1.211914-0.776367,2.050781-0.776367c0.743164,0,1.365234,0.210938,1.864258,0.633789     c0.542969,0.459961,0.81543,1.078125,0.81543,1.854492c0,0.677734-0.217773,1.261719-0.651367,1.75     c-0.141602,0.160156-0.275391,0.289062-0.399414,0.385742s-0.450195,0.329102-0.978516,0.697266     c-0.50293,0.349609-0.863281,0.617188-1.080078,0.803711c-0.216797,0.185547-0.417969,0.399414-0.604492,0.639648H27.535156z"/>
			<path fill="#FFFFFF" d="M33.567383,3.006042v1.356445c-0.043945,0.046875-0.173828,0.194336-0.388672,0.442383     c-0.298828,0.342773-0.595703,0.774414-0.891602,1.293945c-0.294922,0.519531-0.524414,1.017578-0.688477,1.495117     c-0.34668,0.995117-0.556641,2.130859-0.628906,3.407227h-1.651367c0.010742-0.601562,0.115234-1.268555,0.314453-2.001953     c0.198242-0.732422,0.472656-1.464844,0.822266-2.198242c0.5-1.035156,1.006836-1.806641,1.520508-2.313477h-3.773438V3.006042     H33.567383z"/>
		</g>
	</g>
	<g>
		<path id="path3360_45_" fill="#FFFFFF" d="M6.483409,3.001966h2.281423l-3.472317,7.99965H2.999527L6.483409,3.001966z"/>
		<path id="path3466_14_" fill="#FFFFFF" d="M15.213932,8.628384c0.2534,0,0.482906-0.149651,0.585084-0.381516l2.276122-5.245089    H9.878033l-3.472758,8h2.267262l2.629594-5.995276H14.921l-0.830625,1.912371L11.107417,6.91894l2.499856,4.082839    l2.444338-0.000265l-1.955362-2.373131H15.213932z"/>
	</g>
</g>
</svg>