<svg version="1.1" id="Layer_1" xmlns="http://www.w3.org/2000/svg" xmlns:xlink="http://www.w3.org/1999/xlink" x="0px" y="0px" viewBox="0 0 37.400002 14" enable-background="new 0 0 37.400002 14" xml:space="preserve">
<g>
	<path fill="#0E572C" d="M34.400002,14H3c-1.656854,0-3-1.343145-3-3V3c0-1.656854,1.343146-3,3-3h31.400002   c1.656853,0,3,1.343146,3,3v8C37.400002,12.656855,36.056854,14,34.400002,14z"/>
</g>
<g>
	<g>
		<g enable-background="new    ">
			<path fill="#FFFFFF" d="M21.946289,5.538269c0.017578-0.65625,0.179688-1.207031,0.486328-1.652344     c0.496094-0.713867,1.241211-1.071289,2.236328-1.071289c0.765625,0,1.383789,0.195312,1.854492,0.584961     c0.506836,0.422852,0.759766,0.969727,0.759766,1.640625c0,0.401367-0.099609,0.746094-0.297852,1.036133     s-0.467773,0.486328-0.806641,0.587891c0.430664,0.098633,0.770508,0.317383,1.019531,0.65625     c0.25,0.338867,0.375,0.749023,0.375,1.230469c0,0.791016-0.291992,1.438477-0.875,1.941406     c-0.540039,0.466797-1.22168,0.700195-2.044922,0.700195c-0.893555,0-1.601562-0.256836-2.125-0.771484     c-0.523438-0.513672-0.785156-1.208008-0.785156-2.083008c0-0.018555,0-0.052734,0-0.104492h1.537109     c0,0.492188,0.116211,0.873047,0.349609,1.140625s0.563477,0.402344,0.990234,0.402344s0.754883-0.125977,0.984375-0.37793     c0.211914-0.236328,0.317383-0.519531,0.317383-0.847656c0-0.393555-0.134766-0.705078-0.405273-0.93457     c-0.22168-0.189453-0.564453-0.285156-1.027344-0.285156c-0.131836,0-0.260742,0.007812-0.388672,0.022461V6.177917     c0.094727,0.006836,0.185547,0.010742,0.273438,0.010742c0.918945,0,1.37793-0.34082,1.37793-1.022461     c0-0.298828-0.099609-0.541016-0.300781-0.724609c-0.200195-0.18457-0.464844-0.276367-0.792969-0.276367     c-0.375,0-0.665039,0.117188-0.869141,0.349609c-0.204102,0.233398-0.313477,0.574219-0.328125,1.023438H21.946289z"/>
			<path fill="#FFFFFF" d="M33.365234,3.006042v1.421875h-3.22168l-0.344727,1.798828     c0.386719-0.408203,0.880859-0.612305,1.482422-0.612305c0.59082,0,1.104492,0.158203,1.541992,0.475586     c0.649414,0.477539,0.973633,1.203125,0.973633,2.176758c0,0.955078-0.34668,1.711914-1.039062,2.269531     c-0.540039,0.4375-1.18457,0.65625-1.935547,0.65625c-0.84668,0-1.526367-0.226562-2.040039-0.680664     c-0.514648-0.454102-0.786133-1.067383-0.81543-1.84082h1.570312c0.025391,0.28125,0.116211,0.519531,0.273438,0.716797     c0.244141,0.30957,0.583008,0.464844,1.016602,0.464844c0.418945,0,0.750977-0.151367,0.995117-0.454102     c0.237305-0.294922,0.355469-0.654297,0.355469-1.077148c0-0.458984-0.124023-0.826172-0.371094-1.101562     c-0.248047-0.275391-0.578125-0.413086-0.990234-0.413086c-0.50293,0-0.895508,0.225586-1.175781,0.677734l-1.427734-0.021484     l0.760742-4.457031H33.365234z"/>
		</g>
	</g>
	<g>
		<path id="path3360_48_" fill="#FFFFFF" d="M6.483409,3.001966h2.281423l-3.472317,7.99965H2.999527L6.483409,3.001966z"/>
		<path id="path3466_17_" fill="#FFFFFF" d="M15.213932,8.628384c0.2534,0,0.482906-0.149651,0.585084-0.381516l2.276122-5.245089    H9.878033l-3.472758,8h2.267262l2.629594-5.995276H14.921l-0.830625,1.912371L11.107417,6.91894l2.499856,4.082839    l2.444338-0.000265l-1.955362-2.373131H15.213932z"/>
	</g>
</g>
</svg>