<?xml version="1.0" encoding="UTF-8"?>
<!-- Generator: Adobe Illustrator 25.0.1, SVG Export Plug-In . SVG Version: 6.00 Build 0)  -->
<svg version="1.1" id="Layer_1" xmlns="http://www.w3.org/2000/svg" xmlns:xlink="http://www.w3.org/1999/xlink" x="0px" y="0px" viewBox="0 0 37.400002 14" enable-background="new 0 0 37.400002 14" xml:space="preserve">
<g>
	<path fill="#036789" d="M34.400002,14H3c-1.656854,0-3-1.343145-3-3V3c0-1.656854,1.343146-3,3-3h31.400002   c1.656853,0,3,1.343146,3,3v8C37.400002,12.656855,36.056854,14,34.400002,14z"/>
</g>
<g>
	<g>
		<g enable-background="new    ">
			<path fill="#FFFFFF" d="M27.606445,7.823425v1.351562h-1.006836v1.826172h-1.558594V9.174988h-3.335938V7.675964     l3.417969-4.669922h1.476562v4.817383H27.606445z M25.074219,7.840027V4.865417l-2.056641,2.974609H25.074219z"/>
			<path fill="#FFFFFF" d="M33.626953,5.002136h-1.519531c-0.142578-0.616211-0.492188-0.924805-1.050781-0.924805     c-0.589844,0-1.009766,0.363281-1.257812,1.088867c-0.101562,0.294922-0.183594,0.742188-0.246094,1.339844     c0.241211-0.324219,0.49707-0.557617,0.768555-0.700195s0.598633-0.212891,0.981445-0.212891     c0.750977,0,1.354492,0.265625,1.810547,0.797852c0.433594,0.50293,0.650391,1.133789,0.650391,1.892578     c0,0.900391-0.291016,1.624023-0.875,2.170898c-0.524414,0.492188-1.155273,0.738281-1.891602,0.738281     c-0.944336,0-1.678711-0.356445-2.204102-1.069336s-0.787109-1.707031-0.787109-2.983398     c0-1.363281,0.280273-2.431641,0.841797-3.204102c0.542969-0.74707,1.285156-1.121094,2.225586-1.121094     c0.885742,0,1.564453,0.296875,2.03418,0.891602C33.37793,4.049011,33.550781,4.480652,33.626953,5.002136z M30.919922,6.834167     c-0.382812,0-0.686523,0.160156-0.913086,0.481445c-0.204102,0.28418-0.305664,0.623047-0.305664,1.016602     c0,0.390625,0.103516,0.731445,0.311523,1.022461c0.225586,0.325195,0.536133,0.487305,0.929688,0.487305     c0.382812,0,0.69043-0.155273,0.923828-0.464844c0.21875-0.291992,0.328125-0.636719,0.328125-1.03418     c0-0.389648-0.098633-0.723633-0.294922-1C31.658203,7.003113,31.332031,6.834167,30.919922,6.834167z"/>
		</g>
	</g>
	<g>
		<path id="path3360_40_" fill="#FFFFFF" d="M6.483409,3.001966h2.281423l-3.472317,7.99965H2.999527L6.483409,3.001966z"/>
		<path id="path3466_12_" fill="#FFFFFF" d="M15.213932,8.628384c0.2534,0,0.482906-0.149651,0.585084-0.381516l2.276122-5.245089    H9.878033l-3.472758,8h2.267262l2.629594-5.995276H14.921l-0.830625,1.912371L11.107417,6.91894l2.499856,4.082839    l2.444338-0.000265l-1.955362-2.373131H15.213932z"/>
	</g>
</g>
</svg>