<svg version="1.1" id="Layer_1" xmlns="http://www.w3.org/2000/svg" xmlns:xlink="http://www.w3.org/1999/xlink" x="0px" y="0px" viewBox="0 0 37.400002 14" enable-background="new 0 0 37.400002 14" xml:space="preserve">
<g>
	<path fill="#0077BA" d="M34.400002,14H3c-1.656854,0-3-1.343145-3-3V3c0-1.656854,1.343146-3,3-3h31.400002   c1.656853,0,3,1.343146,3,3v8C37.400002,12.656855,36.056854,14,34.400002,14z"/>
</g>
<g>
	<g>
		<g enable-background="new    ">
			<path fill="#FFFFFF" d="M27.398438,5.002136H25.87793c-0.142578-0.616211-0.492188-0.924805-1.049805-0.924805     c-0.59082,0-1.009766,0.363281-1.257812,1.088867c-0.102539,0.294922-0.18457,0.742188-0.246094,1.339844     c0.240234-0.324219,0.496094-0.557617,0.768555-0.700195c0.271484-0.142578,0.598633-0.212891,0.981445-0.212891     c0.750977,0,1.354492,0.265625,1.80957,0.797852c0.43457,0.50293,0.651367,1.133789,0.651367,1.892578     c0,0.900391-0.291992,1.624023-0.875,2.170898c-0.525391,0.492188-1.15625,0.738281-1.892578,0.738281     c-0.944336,0-1.678711-0.356445-2.204102-1.069336c-0.524414-0.712891-0.787109-1.707031-0.787109-2.983398     c0-1.363281,0.280273-2.431641,0.841797-3.204102c0.543945-0.74707,1.285156-1.121094,2.226562-1.121094     c0.885742,0,1.563477,0.296875,2.03418,0.891602C27.148438,4.049011,27.321289,4.480652,27.398438,5.002136z M24.691406,6.834167     c-0.382812,0-0.6875,0.160156-0.913086,0.481445c-0.204102,0.28418-0.306641,0.623047-0.306641,1.016602     c0,0.390625,0.103516,0.731445,0.311523,1.022461c0.226562,0.325195,0.536133,0.487305,0.929688,0.487305     c0.382812,0,0.691406-0.155273,0.924805-0.464844c0.21875-0.291992,0.328125-0.636719,0.328125-1.03418     c0-0.389648-0.098633-0.723633-0.295898-1C25.429688,7.003113,25.103516,6.834167,24.691406,6.834167z"/>
			<path fill="#FFFFFF" d="M33.365234,3.006042v1.421875h-3.22168l-0.344727,1.798828     c0.386719-0.408203,0.880859-0.612305,1.482422-0.612305c0.59082,0,1.104492,0.158203,1.541992,0.475586     c0.649414,0.477539,0.973633,1.203125,0.973633,2.176758c0,0.955078-0.34668,1.711914-1.039062,2.269531     c-0.540039,0.4375-1.18457,0.65625-1.935547,0.65625c-0.84668,0-1.526367-0.226562-2.040039-0.680664     c-0.514648-0.454102-0.786133-1.067383-0.81543-1.84082h1.570312c0.025391,0.28125,0.116211,0.519531,0.273438,0.716797     c0.244141,0.30957,0.583008,0.464844,1.016602,0.464844c0.418945,0,0.750977-0.151367,0.995117-0.454102     c0.237305-0.294922,0.355469-0.654297,0.355469-1.077148c0-0.458984-0.124023-0.826172-0.371094-1.101562     c-0.248047-0.275391-0.578125-0.413086-0.990234-0.413086c-0.50293,0-0.895508,0.225586-1.175781,0.677734l-1.427734-0.021484     l0.760742-4.457031H33.365234z"/>
		</g>
	</g>
	<g>
		<path id="path3360_1_" fill="#FFFFFF" d="M6.483409,3.001966h2.281423l-3.472317,7.99965H2.999527L6.483409,3.001966z"/>
		<path id="path3466_1_" fill="#FFFFFF" d="M15.213932,8.628384c0.2534,0,0.482906-0.149651,0.585084-0.381516l2.276122-5.245089    H9.878033l-3.472758,8h2.267262l2.629594-5.995276H14.921l-0.830625,1.912371L11.107417,6.91894l2.499856,4.082839    l2.444338-0.000265l-1.955362-2.373131H15.213932z"/>
	</g>
</g>
</svg>