<svg version="1.1" id="Layer_1" xmlns="http://www.w3.org/2000/svg" xmlns:xlink="http://www.w3.org/1999/xlink" x="0px" y="0px" viewBox="0 0 37.400002 14" enable-background="new 0 0 37.400002 14" xml:space="preserve">
<g>
	<path fill="#F093BE" d="M34.400002,14H3c-1.656854,0-3-1.343145-3-3V3c0-1.656854,1.343146-3,3-3h31.400002   c1.656853,0,3,1.343146,3,3v8C37.400002,12.656855,36.056854,14,34.400002,14z"/>
</g>
<g>
	<g>
		<g enable-background="new    ">
			<path fill="#181816" d="M27.337891,3.006042v1.356445c-0.043945,0.046875-0.172852,0.194336-0.387695,0.442383     c-0.299805,0.342773-0.59668,0.774414-0.891602,1.293945c-0.295898,0.519531-0.525391,1.017578-0.689453,1.495117     c-0.345703,0.995117-0.555664,2.130859-0.628906,3.407227h-1.651367c0.010742-0.601562,0.116211-1.268555,0.314453-2.001953     c0.198242-0.732422,0.472656-1.464844,0.823242-2.198242c0.499023-1.035156,1.005859-1.806641,1.520508-2.313477h-3.773438     V3.006042H27.337891z"/>
			<path fill="#181816" d="M30.919922,2.814636c0.609375,0,1.145508,0.185547,1.608398,0.557617     c0.458984,0.37207,0.792969,0.944336,1.000977,1.716797c0.15625,0.59082,0.234375,1.232422,0.234375,1.925781     c0,1.148438-0.204102,2.092773-0.612305,2.832031c-0.240234,0.430664-0.554688,0.762695-0.943359,0.996094     c-0.387695,0.232422-0.821289,0.349609-1.298828,0.349609c-0.652344,0-1.209961-0.197266-1.672852-0.59082     C28.412109,9.90155,28,8.706238,28,7.014832c0-1.203125,0.214844-2.169922,0.645508-2.898438     c0.244141-0.416016,0.563477-0.736328,0.959961-0.962891C30.000977,2.927917,30.439453,2.814636,30.919922,2.814636z      M30.860352,4.165222c-0.525391,0-0.882812,0.302734-1.072266,0.908203c-0.149414,0.480469-0.223633,1.155273-0.223633,2.023438     c0,0.765625,0.076172,1.379883,0.229492,1.842773c0.196289,0.601562,0.561523,0.902344,1.09375,0.902344     c0.44043,0,0.768555-0.233398,0.984375-0.700195c0.214844-0.466797,0.322266-1.179688,0.322266-2.138672     c0-0.816406-0.076172-1.459961-0.229492-1.929688C31.767578,4.467957,31.399414,4.165222,30.860352,4.165222z"/>
		</g>
	</g>
	<g>
		<path id="path3360_33_" fill="#181816" d="M6.483409,3.001966h2.281423l-3.472317,7.99965H2.999527L6.483409,3.001966z"/>
		<path id="path3466_5_" fill="#181816" d="M15.213932,8.628384c0.2534,0,0.482906-0.149651,0.585084-0.381516l2.276122-5.245089    H9.878033l-3.472758,8h2.267262l2.629594-5.995276H14.921l-0.830625,1.912371L11.107417,6.91894l2.499856,4.082839    l2.444338-0.000265l-1.955362-2.373131H15.213932z"/>
	</g>
</g>
</svg>