<svg version="1.1" id="Layer_1" xmlns="http://www.w3.org/2000/svg" xmlns:xlink="http://www.w3.org/1999/xlink" x="0px" y="0px" viewBox="0 0 37.400002 14" enable-background="new 0 0 37.400002 14" xml:space="preserve">
<g>
	<path fill="#0278A2" d="M34.400002,14H3c-1.656854,0-3-1.343145-3-3V3c0-1.656854,1.343146-3,3-3h31.400002   c1.656853,0,3,1.343146,3,3v8C37.400002,12.656855,36.056854,14,34.400002,14z"/>
</g>
<g>
	<g>
		<g enable-background="new    ">
			<path fill="#FFFFFF" d="M21.913086,8.994324h1.509766C23.546875,9.614441,23.905273,9.924011,24.5,9.924011     c0.334961,0,0.607422-0.114258,0.817383-0.341797s0.371094-0.583008,0.484375-1.063477     c0.072266-0.306641,0.125-0.654297,0.158203-1.044922c-0.244141,0.342773-0.495117,0.585938-0.751953,0.730469     c-0.256836,0.143555-0.569336,0.21582-0.9375,0.21582c-0.586914,0-1.097656-0.171875-1.53125-0.514648     c-0.302734-0.240234-0.539062-0.551758-0.708984-0.93457c-0.168945-0.382812-0.253906-0.798828-0.253906-1.24707     c0-0.900391,0.307617-1.629883,0.923828-2.1875c0.529297-0.481445,1.163086-0.72168,1.90332-0.72168     c0.456055,0,0.876953,0.101562,1.263672,0.305664c0.386719,0.205078,0.710938,0.494141,0.973633,0.870117     c0.462891,0.666992,0.694336,1.604492,0.694336,2.810547c0,1.116211-0.204102,2.067383-0.612305,2.854492     c-0.532227,1.025391-1.338867,1.537109-2.417969,1.537109c-0.717773,0-1.311523-0.198242-1.779297-0.595703     C22.256836,10.199402,21.986328,9.665222,21.913086,8.994324z M24.571289,4.165222     c-0.342773,0-0.632812,0.140625-0.870117,0.420898c-0.236328,0.28418-0.355469,0.645508-0.355469,1.083008     c0,0.353516,0.085938,0.666992,0.256836,0.94043c0.233398,0.375977,0.561523,0.563477,0.984375,0.563477     c0.382812,0,0.689453-0.15332,0.918945-0.458984c0.214844-0.288086,0.323242-0.630859,0.323242-1.02832     c0-0.418945-0.111328-0.774414-0.333984-1.066406C25.261719,4.316589,24.954102,4.165222,24.571289,4.165222z"/>
			<path fill="#FFFFFF" d="M30.919922,2.814636c0.609375,0,1.145508,0.185547,1.608398,0.557617     c0.458984,0.37207,0.792969,0.944336,1.000977,1.716797c0.15625,0.59082,0.234375,1.232422,0.234375,1.925781     c0,1.148438-0.204102,2.092773-0.612305,2.832031c-0.240234,0.430664-0.554688,0.762695-0.943359,0.996094     c-0.387695,0.232422-0.821289,0.349609-1.298828,0.349609c-0.652344,0-1.209961-0.197266-1.672852-0.59082     C28.412109,9.90155,28,8.706238,28,7.014832c0-1.203125,0.214844-2.169922,0.645508-2.898438     c0.244141-0.416016,0.563477-0.736328,0.959961-0.962891C30.000977,2.927917,30.439453,2.814636,30.919922,2.814636z      M30.860352,4.165222c-0.525391,0-0.882812,0.302734-1.072266,0.908203c-0.149414,0.480469-0.223633,1.155273-0.223633,2.023438     c0,0.765625,0.076172,1.379883,0.229492,1.842773c0.196289,0.601562,0.561523,0.902344,1.09375,0.902344     c0.44043,0,0.768555-0.233398,0.984375-0.700195c0.214844-0.466797,0.322266-1.179688,0.322266-2.138672     c0-0.816406-0.076172-1.459961-0.229492-1.929688C31.767578,4.467957,31.399414,4.165222,30.860352,4.165222z"/>
		</g>
	</g>
	<g>
		<path id="path3360_36_" fill="#FFFFFF" d="M6.483409,3.001966h2.281423l-3.472317,7.99965H2.999527L6.483409,3.001966z"/>
		<path id="path3466_8_" fill="#FFFFFF" d="M15.213932,8.628384c0.2534,0,0.482906-0.149651,0.585084-0.381516l2.276122-5.245089    H9.878033l-3.472758,8h2.267262l2.629594-5.995276H14.921l-0.830625,1.912371L11.107417,6.91894l2.499856,4.082839    l2.444338-0.000265l-1.955362-2.373131H15.213932z"/>
	</g>
</g>
</svg>