<svg version="1.1" id="Layer_1" xmlns="http://www.w3.org/2000/svg" xmlns:xlink="http://www.w3.org/1999/xlink" x="0px" y="0px" viewBox="0 0 37.400002 14" enable-background="new 0 0 37.400002 14" xml:space="preserve">
<g>
	<path fill="#565655" d="M34.400002,14H3c-1.656854,0-3-1.343145-3-3V3c0-1.656854,1.343146-3,3-3h31.400002   c1.656853,0,3,1.343146,3,3v8C37.400002,12.656855,36.056854,14,34.400002,14z"/>
</g>
<g>
	<g enable-background="new    ">
		<path fill="#FFFFFF" d="M10.530762,3.086609v7.995605H8.775391L5.428711,5.63446l0.021973,5.447754H3.771484V3.086609h1.777344    l3.325195,5.436035L8.852051,3.086609H10.530762z"/>
		<path fill="#FFFFFF" d="M16.754395,3.086609v5.381348c0,0.466797-0.035156,0.84082-0.106445,1.121094    c-0.071289,0.28125-0.195801,0.538086-0.374512,0.771484c-0.463379,0.608398-1.177734,0.913086-2.144043,0.913086    c-1.137207,0-1.919434-0.382812-2.345703-1.148438c-0.21875-0.401367-0.328125-0.967773-0.328125-1.701172    c0-0.072266,0.001465-0.183594,0.005371-0.333008h1.618652c0,0.09082,0,0.167969,0,0.229492    c0,0.536133,0.043945,0.895508,0.131348,1.077148c0.145508,0.306641,0.433594,0.459961,0.86377,0.459961    c0.350098,0,0.59375-0.098633,0.730469-0.295898c0.136719-0.196289,0.205078-0.541016,0.205078-1.033203V3.086609H16.754395z"/>
	</g>
</g>
</svg>