<svg version="1.1" id="Layer_1" xmlns="http://www.w3.org/2000/svg" xmlns:xlink="http://www.w3.org/1999/xlink" x="0px" y="0px" viewBox="0 0 37.400002 14" enable-background="new 0 0 37.400002 14" xml:space="preserve">
<g>
	<path fill="#565655" d="M34.400002,14H3c-1.656854,0-3-1.343145-3-3V3c0-1.656854,1.343146-3,3-3h31.400002   c1.656853,0,3,1.343146,3,3v8C37.400002,12.656855,36.056854,14,34.400002,14z"/>
</g>
<g>
	<g enable-background="new    ">
		<path fill="#FFFFFF" d="M3.760742,3.286804h3.226562c0.542969,0,0.970703,0.033203,1.282227,0.100586    c0.312012,0.068359,0.593262,0.1875,0.845215,0.358398c0.696289,0.466797,1.044434,1.170898,1.044434,2.111328    c0,0.834961-0.288086,1.491211-0.864258,1.96875C9.050781,8.02948,8.771973,8.175964,8.458496,8.265808    C8.144531,8.354675,7.758301,8.399597,7.298828,8.399597H5.505371v2.881836H3.760742V3.286804z M5.505371,4.763367v2.263672    h1.558594c0.462891,0,0.796387-0.082031,1.000488-0.246094c0.251465-0.204102,0.377441-0.504883,0.377441-0.902344    c0-0.400391-0.145996-0.700195-0.4375-0.896484c-0.211426-0.145508-0.556152-0.21875-1.033691-0.21875H5.505371z"/>
		<path fill="#FFFFFF" d="M17.121094,3.286804v1.476562h-4.254883v1.706055h3.899414v1.373047h-3.899414v1.962402h4.331055v1.476562    h-6.075684V3.286804H17.121094z"/>
	</g>
</g>
</svg>