<?xml version="1.0" encoding="UTF-8" standalone="no"?>
<svg
   version="1.1"
   id="Layer_1"
   x="0px"
   y="0px"
   viewBox="0 0 37.4 14"
   style="enable-background:new 0 0 37.4 14;"
   xml:space="preserve"
   sodipodi:docname="R.svg"
   inkscape:version="1.3.2 (091e20e, 2023-11-25, custom)"
   xmlns:inkscape="http://www.inkscape.org/namespaces/inkscape"
   xmlns:sodipodi="http://sodipodi.sourceforge.net/DTD/sodipodi-0.dtd"
   xmlns="http://www.w3.org/2000/svg"
   xmlns:svg="http://www.w3.org/2000/svg"><defs
   id="defs6" /><sodipodi:namedview
   id="namedview6"
   pagecolor="#ffffff"
   bordercolor="#000000"
   borderopacity="0.25"
   inkscape:showpageshadow="2"
   inkscape:pageopacity="0.0"
   inkscape:pagecheckerboard="0"
   inkscape:deskcolor="#d1d1d1"
   showgrid="false"
   inkscape:zoom="64"
   inkscape:cx="18.1875"
   inkscape:cy="5.6953125"
   inkscape:window-width="3440"
   inkscape:window-height="1369"
   inkscape:window-x="1912"
   inkscape:window-y="-8"
   inkscape:window-maximized="1"
   inkscape:current-layer="g5" />
<style
   type="text/css"
   id="style1">
	.st0{fill:#565655;}
	.st1{enable-background:new    ;}
	.st2{fill:#FFFFFF;}
</style>
<g
   id="g1">
	<path
   class="st0"
   d="M34.4,14H3c-1.7,0-3-1.3-3-3V3c0-1.7,1.3-3,3-3h31.4c1.7,0,3,1.3,3,3v8C37.4,12.7,36.1,14,34.4,14z"
   id="path1" />
</g>
<g
   id="g6">
	<g
   class="st1"
   id="g5">
		<path
   class="st2"
   d="M3.7,3.1h3.9c0.8,0,1.4,0.1,1.8,0.4c0.3,0.2,0.6,0.5,0.8,0.8s0.3,0.7,0.3,1.1c0,0.5-0.1,0.9-0.3,1.2    C9.9,6.9,9.5,7.2,9.1,7.3C9.5,7.4,9.8,7.6,10,7.9c0.1,0.2,0.2,0.4,0.3,0.6c0,0.2,0.1,0.7,0.2,1.4c0.1,0.6,0.1,0.9,0.2,1l0.1,0.1    H8.9c-0.1-0.1-0.1-0.3-0.1-0.4c0-0.2-0.1-0.6-0.1-1.2c0-0.6-0.2-1-0.4-1.2S7.6,7.9,7,7.9H5.5v3.1H3.7V3.1z M5.5,4.5v2.2h1.7    c0.5,0,0.9-0.1,1.1-0.2c0.3-0.2,0.4-0.5,0.4-0.9c0-0.4-0.1-0.7-0.4-0.8S7.7,4.5,7.2,4.5H5.5z"
   id="path2" />
		
		
		
	</g>
</g>
</svg>
