<?xml version="1.0" encoding="UTF-8" standalone="no"?>
<svg
   version="1.1"
   id="Layer_1"
   x="0px"
   y="0px"
   viewBox="0 0 37.400002 14"
   enable-background="new 0 0 37.400002 14"
   xml:space="preserve"
   sodipodi:docname="R1.svg"
   inkscape:version="1.3.2 (091e20e, 2023-11-25, custom)"
   xmlns:inkscape="http://www.inkscape.org/namespaces/inkscape"
   xmlns:sodipodi="http://sodipodi.sourceforge.net/DTD/sodipodi-0.dtd"
   xmlns="http://www.w3.org/2000/svg"
   xmlns:svg="http://www.w3.org/2000/svg"><defs
   id="defs5" /><sodipodi:namedview
   id="namedview5"
   pagecolor="#ffffff"
   bordercolor="#000000"
   borderopacity="0.25"
   inkscape:showpageshadow="2"
   inkscape:pageopacity="0.0"
   inkscape:pagecheckerboard="0"
   inkscape:deskcolor="#d1d1d1"
   showgrid="false"
   inkscape:zoom="64"
   inkscape:cx="19.015625"
   inkscape:cy="8.5234375"
   inkscape:window-width="3440"
   inkscape:window-height="1369"
   inkscape:window-x="1912"
   inkscape:window-y="-8"
   inkscape:window-maximized="1"
   inkscape:current-layer="g5" />
<g
   id="g1">
	<path
   fill="#565655"
   d="M34.400002,14H3c-1.656854,0-3-1.343145-3-3V3c0-1.656854,1.343146-3,3-3h31.400002   c1.656853,0,3,1.343146,3,3v8C37.400002,12.656855,36.056854,14,34.400002,14z"
   id="path1" />
</g>
<g
   id="g5">
	<g
   enable-background="new    "
   id="g4">
		<path
   fill="#FFFFFF"
   d="M3.733398,3.086609H7.60498c0.765625,0,1.352539,0.120117,1.76123,0.360352    c0.338867,0.197266,0.597656,0.459961,0.776367,0.788086s0.268066,0.698242,0.268066,1.110352    c0,0.466797-0.112305,0.873047-0.336426,1.21875C9.850098,6.910828,9.537598,7.158875,9.13623,7.308289    c0.354004,0.087891,0.630859,0.28418,0.831543,0.59082c0.127441,0.193359,0.213379,0.395996,0.256836,0.606934    c0.043945,0.211914,0.100098,0.695312,0.169434,1.449219c0.05127,0.554688,0.129395,0.899414,0.235352,1.03418l0.07666,0.092773    H8.884766c-0.062012-0.113281-0.106445-0.256836-0.133789-0.431641c-0.027344-0.175781-0.062988-0.580078-0.106934-1.214844    C8.600586,8.871277,8.462891,8.479675,8.231445,8.26239C8,8.045593,7.60498,7.937195,7.047363,7.937195H5.478027v3.14502H3.733398    V3.086609z M5.478027,4.458679v2.199219h1.667969c0.535645,0,0.913086-0.077148,1.131836-0.230469    c0.276855-0.192383,0.415527-0.484375,0.415527-0.875c0-0.378906-0.118652-0.65625-0.355469-0.831055    s-0.61084-0.262695-1.121094-0.262695H5.478027z"
   id="path2" />
		
		<path
   fill="#ffffff"
   d="m 16.312985,3.08769 v 7.995605 h -1.59668 V 5.8494089 H 14.147946 13.578609 13.026851 12.835445 V 4.690229 c 0.389648,-0.01172 0.708008,-0.05176 0.954102,-0.121094 0.246095,-0.06836 0.470704,-0.181641 0.674806,-0.338867 0.295898,-0.225586 0.494141,-0.606445 0.59668,-1.142578 z"
   id="path4"
   style="fill:#ffffff" />
	</g>
</g>
</svg>
