<?xml version="1.0" encoding="UTF-8" standalone="no"?>
<svg
   version="1.1"
   id="Layer_1"
   x="0px"
   y="0px"
   viewBox="0 0 37.4 14"
   style="enable-background:new 0 0 37.4 14;"
   xml:space="preserve"
   sodipodi:docname="R4.svg"
   inkscape:version="1.3.2 (091e20e, 2023-11-25, custom)"
   xmlns:inkscape="http://www.inkscape.org/namespaces/inkscape"
   xmlns:sodipodi="http://sodipodi.sourceforge.net/DTD/sodipodi-0.dtd"
   xmlns="http://www.w3.org/2000/svg"
   xmlns:svg="http://www.w3.org/2000/svg"><defs
   id="defs6" /><sodipodi:namedview
   id="namedview6"
   pagecolor="#ffffff"
   bordercolor="#000000"
   borderopacity="0.25"
   inkscape:showpageshadow="2"
   inkscape:pageopacity="0.0"
   inkscape:pagecheckerboard="0"
   inkscape:deskcolor="#d1d1d1"
   showgrid="false"
   inkscape:zoom="78.128339"
   inkscape:cx="18.700001"
   inkscape:cy="6.994901"
   inkscape:window-width="3440"
   inkscape:window-height="1369"
   inkscape:window-x="1912"
   inkscape:window-y="-8"
   inkscape:window-maximized="1"
   inkscape:current-layer="g6" />
<style
   type="text/css"
   id="style1">
	.st0{fill:#565655;}
	.st1{enable-background:new    ;}
	.st2{fill:#FFFFFF;}
</style>
<g
   id="g1">
	<path
   class="st0"
   d="M34.4,14H3c-1.7,0-3-1.3-3-3V3c0-1.7,1.3-3,3-3h31.4c1.7,0,3,1.3,3,3v8C37.4,12.7,36.1,14,34.4,14z"
   id="path1" />
</g>
<g
   id="g6">
	<g
   class="st1"
   id="g5">
		<path
   class="st2"
   d="m 3.7,3.1 h 3.9 c 0.8,0 1.4,0.1 1.8,0.4 0.3,0.2 0.6,0.5 0.8,0.8 0.2,0.3 0.3,0.7 0.3,1.1 0,0.5 -0.1,0.9 -0.3,1.2 -0.3,0.3 -0.7,0.6 -1.1,0.7 0.4,0.1 0.7,0.3 0.9,0.6 0.1,0.2 0.2,0.4 0.3,0.6 0,0.2 0.1,0.7 0.2,1.4 0.1,0.6 0.1,0.9 0.2,1 L 10.8,11 H 8.9 C 8.8,10.9 8.8,10.7 8.8,10.6 8.8,10.4 8.7,10 8.7,9.4 8.7,8.8 8.5,8.4 8.3,8.2 8.1,8 7.6,7.9 7,7.9 H 5.5 V 11 H 3.7 Z M 5.5,4.5 V 6.7 H 7.2 C 7.7,6.7 8.1,6.6 8.3,6.5 8.6,6.3 8.7,6 8.7,5.6 8.7,5.2 8.6,4.9 8.3,4.8 8,4.7 7.7,4.5 7.2,4.5 Z"
   id="path2"
   sodipodi:insensitive="true" />
		
		
		<path
   class="st2"
   d="m 19.8,7.9 v 1.4 h -1 v 1.8 H 17.2 V 9.3 H 13.9 V 7.8 l 3.4,-4.7 h 1.5 v 4.8 z m -2.6,0 v -3 l -2.1,3 z"
   id="path5" />
	</g>
</g>
</svg>
