<?xml version="1.0" encoding="UTF-8" standalone="no"?>
<svg
   version="1.1"
   id="Layer_1"
   x="0px"
   y="0px"
   viewBox="0 0 37.4 14"
   style="enable-background:new 0 0 37.4 14;"
   xml:space="preserve"
   sodipodi:docname="R5.svg"
   inkscape:version="1.3.2 (091e20e, 2023-11-25, custom)"
   xmlns:inkscape="http://www.inkscape.org/namespaces/inkscape"
   xmlns:sodipodi="http://sodipodi.sourceforge.net/DTD/sodipodi-0.dtd"
   xmlns="http://www.w3.org/2000/svg"
   xmlns:svg="http://www.w3.org/2000/svg"><defs
   id="defs6" /><sodipodi:namedview
   id="namedview6"
   pagecolor="#ffffff"
   bordercolor="#000000"
   borderopacity="0.25"
   inkscape:showpageshadow="2"
   inkscape:pageopacity="0.0"
   inkscape:pagecheckerboard="0"
   inkscape:deskcolor="#d1d1d1"
   showgrid="false"
   inkscape:zoom="64"
   inkscape:cx="18.1875"
   inkscape:cy="5.6953125"
   inkscape:window-width="3440"
   inkscape:window-height="1369"
   inkscape:window-x="1912"
   inkscape:window-y="-8"
   inkscape:window-maximized="1"
   inkscape:current-layer="g5" />
<style
   type="text/css"
   id="style1">
	.st0{fill:#565655;}
	.st1{enable-background:new    ;}
	.st2{fill:#FFFFFF;}
</style>
<g
   id="g1">
	<path
   class="st0"
   d="M34.4,14H3c-1.7,0-3-1.3-3-3V3c0-1.7,1.3-3,3-3h31.4c1.7,0,3,1.3,3,3v8C37.4,12.7,36.1,14,34.4,14z"
   id="path1" />
</g>
<g
   id="g6">
	<g
   class="st1"
   id="g5">
		<path
   fill="#ffffff"
   d="M 19.428711,2.953125 V 4.375 H 16.208008 L 15.863281,6.173828 C 16.25,5.765625 16.743164,5.561523 17.344726,5.561523 c 0.59082,0 1.105469,0.158203 1.542969,0.475586 0.648438,0.477539 0.972656,1.203125 0.972656,2.176758 0,0.955078 -0.345703,1.711914 -1.039062,2.269531 -0.539062,0.4375 -1.18457,0.65625 -1.935547,0.65625 -0.845703,0 -1.525391,-0.226562 -2.040039,-0.680664 -0.513672,-0.454102 -0.785156,-1.067383 -0.814453,-1.84082 h 1.569336 c 0.02539,0.28125 0.116211,0.519531 0.273438,0.716797 0.244141,0.30957 0.583008,0.464844 1.017578,0.464844 0.418945,0 0.750977,-0.151367 0.995117,-0.454102 0.236328,-0.294922 0.355469,-0.654297 0.355469,-1.077148 0,-0.458984 -0.124023,-0.826172 -0.37207,-1.101562 -0.248047,-0.27539 -0.578125,-0.413086 -0.990234,-0.413086 -0.50293,0 -0.894531,0.225586 -1.175781,0.677734 L 14.277345,7.410157 15.037111,2.953126 h 4.3916 z"
   id="path2-2" /><path
   class="st2"
   d="M3.7,3.1h3.9c0.8,0,1.4,0.1,1.8,0.4c0.3,0.2,0.6,0.5,0.8,0.8s0.3,0.7,0.3,1.1c0,0.5-0.1,0.9-0.3,1.2    C9.9,6.9,9.5,7.2,9.1,7.3C9.5,7.4,9.8,7.6,10,7.9c0.1,0.2,0.2,0.4,0.3,0.6c0,0.2,0.1,0.7,0.2,1.4c0.1,0.6,0.1,0.9,0.2,1l0.1,0.1    H8.9c-0.1-0.1-0.1-0.3-0.1-0.4c0-0.2-0.1-0.6-0.1-1.2c0-0.6-0.2-1-0.4-1.2S7.6,7.9,7,7.9H5.5v3.1H3.7V3.1z M5.5,4.5v2.2h1.7    c0.5,0,0.9-0.1,1.1-0.2c0.3-0.2,0.4-0.5,0.4-0.9c0-0.4-0.1-0.7-0.4-0.8S7.7,4.5,7.2,4.5H5.5z"
   id="path2" />
		
		
		
	</g>
</g>
</svg>
