<?xml version="1.0" encoding="UTF-8"?>
<!-- Generator: Adobe Illustrator 25.0.1, SVG Export Plug-In . SVG Version: 6.00 Build 0)  -->
<svg version="1.1" id="Layer_1" xmlns="http://www.w3.org/2000/svg" xmlns:xlink="http://www.w3.org/1999/xlink" x="0px" y="0px" viewBox="0 0 37.400002 14" enable-background="new 0 0 37.400002 14" xml:space="preserve">
<g>
	<path fill="#565655" d="M34.400002,14H3c-1.656854,0-3-1.343145-3-3V3c0-1.656854,1.343146-3,3-3h31.400002   c1.656853,0,3,1.343146,3,3v8C37.400002,12.656855,36.056854,14,34.400002,14z"/>
</g>
<g>
	<g enable-background="new    ">
		<path fill="#FFFFFF" d="M3.733398,3.086609H7.60498c0.765625,0,1.352539,0.120117,1.76123,0.360352    c0.338867,0.197266,0.597656,0.459961,0.776367,0.788086s0.268066,0.698242,0.268066,1.110352    c0,0.466797-0.112305,0.873047-0.336426,1.21875C9.850098,6.910828,9.537598,7.158875,9.13623,7.308289    c0.354004,0.087891,0.630859,0.28418,0.831543,0.591309c0.127441,0.193359,0.213379,0.395508,0.256836,0.606445    c0.043945,0.211914,0.100098,0.695312,0.169434,1.449219c0.05127,0.554688,0.129395,0.899414,0.235352,1.03418l0.07666,0.092773    H8.884766c-0.062012-0.113281-0.106445-0.256836-0.133789-0.431641c-0.027344-0.175781-0.062988-0.580078-0.106934-1.214844    C8.600586,8.871277,8.462891,8.479675,8.231445,8.262878S7.60498,7.937683,7.047363,7.937683H5.478027v3.144531H3.733398V3.086609    z M5.478027,4.458679v2.199219h1.667969c0.535645,0,0.913086-0.077148,1.131836-0.230469    c0.276855-0.192383,0.415527-0.484375,0.415527-0.875c0-0.378906-0.118652-0.65625-0.355469-0.831055    s-0.61084-0.262695-1.121094-0.262695H5.478027z"/>
		<path fill="#FFFFFF" d="M17.886719,3.086609v1.476562h-4.254883v1.706055h3.899414v1.373047h-3.899414v1.963379h4.331055v1.476562    h-6.075684V3.086609H17.886719z"/>
	</g>
</g>
</svg>