<?xml version="1.0" encoding="UTF-8"?>
<!-- Generator: Adobe Illustrator 28.0.0, SVG Export Plug-In . SVG Version: 6.00 Build 0)  -->
<svg version="1.1" id="Layer_1" xmlns="http://www.w3.org/2000/svg" xmlns:xlink="http://www.w3.org/1999/xlink" x="0px" y="0px" viewBox="0 0 37.4 14" style="enable-background:new 0 0 37.4 14;" xml:space="preserve">
<style type="text/css">
	.st0{fill:#565655;}
	.st1{enable-background:new    ;}
	.st2{fill:#FFFFFF;}
</style>
<g>
	<path class="st0" d="M34.4,14H3c-1.7,0-3-1.3-3-3V3c0-1.7,1.3-3,3-3h31.4c1.7,0,3,1.3,3,3v8C37.4,12.7,36.1,14,34.4,14z"/>
</g>
<g>
	<g class="st1">
		<path class="st2" d="M3.7,3.1h3.9c0.8,0,1.4,0.1,1.8,0.4c0.3,0.2,0.6,0.5,0.8,0.8s0.3,0.7,0.3,1.1c0,0.5-0.1,0.9-0.3,1.2    C9.9,6.9,9.5,7.2,9.1,7.3C9.5,7.4,9.8,7.6,10,7.9c0.1,0.2,0.2,0.4,0.3,0.6c0,0.2,0.1,0.7,0.2,1.4c0.1,0.6,0.1,0.9,0.2,1l0.1,0.1    H8.9c-0.1-0.1-0.1-0.3-0.1-0.4c0-0.2-0.1-0.6-0.1-1.2c0-0.6-0.2-1-0.4-1.2S7.6,7.9,7,7.9H5.5v3.1H3.7V3.1z M5.5,4.5v2.2h1.7    c0.5,0,0.9-0.1,1.1-0.2c0.3-0.2,0.4-0.5,0.4-0.9c0-0.4-0.1-0.7-0.4-0.8S7.7,4.5,7.2,4.5H5.5z"/>
		<path class="st2" d="M17.9,3.1v1.5h-4.3v1.7h3.9v1.4h-3.9v2H18v1.5h-6.1v-8H17.9z"/>
		<path class="st2" d="M21.9,5.6c0-0.7,0.2-1.2,0.5-1.7c0.5-0.7,1.2-1.1,2.2-1.1c0.8,0,1.4,0.2,1.9,0.6c0.5,0.4,0.8,1,0.8,1.6    c0,0.4-0.1,0.7-0.3,1s-0.5,0.5-0.8,0.6c0.4,0.1,0.8,0.3,1,0.7c0.2,0.3,0.4,0.7,0.4,1.2c0,0.8-0.3,1.4-0.9,1.9    c-0.5,0.5-1.2,0.7-2,0.7c-0.9,0-1.6-0.3-2.1-0.8c-0.5-0.5-0.8-1.2-0.8-2.1c0,0,0-0.1,0-0.1h1.5c0,0.5,0.1,0.9,0.3,1.1    s0.6,0.4,1,0.4s0.8-0.1,1-0.4c0.2-0.2,0.3-0.5,0.3-0.8c0-0.4-0.1-0.7-0.4-0.9c-0.2-0.2-0.6-0.3-1-0.3c-0.1,0-0.3,0-0.4,0V6.3    c0.1,0,0.2,0,0.3,0c0.9,0,1.4-0.3,1.4-1c0-0.3-0.1-0.5-0.3-0.7c-0.2-0.2-0.5-0.3-0.8-0.3c-0.4,0-0.7,0.1-0.9,0.3    c-0.2,0.2-0.3,0.6-0.3,1H21.9z"/>
		<path class="st2" d="M29.3,6.8c-0.4-0.1-0.7-0.3-0.9-0.6c-0.2-0.3-0.3-0.6-0.3-1.1c0-0.7,0.3-1.2,0.9-1.7c0.5-0.4,1.1-0.5,1.8-0.5    c0.8,0,1.4,0.2,1.9,0.7c0.5,0.4,0.7,0.9,0.7,1.5c0,0.4-0.1,0.8-0.3,1.1c-0.2,0.3-0.5,0.5-0.9,0.7C32.6,6.9,32.8,7,33,7.1    c0.5,0.4,0.8,0.9,0.8,1.6c0,0.8-0.3,1.5-0.9,1.9c-0.5,0.4-1.2,0.6-2,0.6c-0.9,0-1.6-0.2-2.1-0.7c-0.6-0.5-0.8-1.1-0.8-1.8    c0-0.7,0.2-1.2,0.7-1.6C28.8,7,29.1,6.9,29.3,6.8z M30.8,7.4c-0.4,0-0.7,0.1-1,0.4c-0.2,0.2-0.4,0.6-0.4,0.9c0,0.4,0.1,0.7,0.4,1    c0.3,0.2,0.6,0.4,1,0.4c0.5,0,0.8-0.1,1-0.4c0.2-0.3,0.3-0.6,0.3-0.9c0-0.4-0.1-0.7-0.4-1C31.6,7.5,31.2,7.4,30.8,7.4z M30.8,4.1    c-0.3,0-0.6,0.1-0.8,0.3c-0.2,0.2-0.3,0.5-0.3,0.8c0,0.3,0.1,0.6,0.3,0.8c0.2,0.2,0.5,0.3,0.9,0.3c0.4,0,0.7-0.1,0.9-0.3    C31.9,5.8,32,5.5,32,5.2c0-0.3-0.1-0.6-0.3-0.8C31.5,4.2,31.2,4.1,30.8,4.1z"/>
	</g>
</g>
</svg>