<svg version="1.1" id="Layer_1" xmlns="http://www.w3.org/2000/svg" xmlns:xlink="http://www.w3.org/1999/xlink" x="0px" y="0px" viewBox="0 0 37.4 14" style="enable-background:new 0 0 37.4 14;" xml:space="preserve">
<style type="text/css">
	.st0{fill:#581645;}
	.st1{enable-background:new    ;}
	.st2{fill:#FFFFFF;}
</style>
<g>
	<path class="st0" d="M34.4,14H3c-1.7,0-3-1.3-3-3V3c0-1.7,1.3-3,3-3h31.4c1.7,0,3,1.3,3,3v8C37.4,12.7,36.1,14,34.4,14z"/>
</g>
<g>
	<g class="st1">
		<path class="st2" d="M3.7,3.1h3.9c0.8,0,1.4,0.1,1.8,0.4c0.3,0.2,0.6,0.5,0.8,0.8s0.3,0.7,0.3,1.1c0,0.5-0.1,0.9-0.3,1.2    C9.9,6.9,9.5,7.2,9.1,7.3C9.5,7.4,9.8,7.6,10,7.9c0.1,0.2,0.2,0.4,0.3,0.6c0,0.2,0.1,0.7,0.2,1.4c0.1,0.6,0.1,0.9,0.2,1l0.1,0.1    H8.9c-0.1-0.1-0.1-0.3-0.1-0.4c0-0.2-0.1-0.6-0.1-1.2c0-0.6-0.2-1-0.4-1.2C8,8,7.6,7.9,7,7.9H5.5v3.1H3.7V3.1z M5.5,4.5v2.2h1.7    c0.5,0,0.9-0.1,1.1-0.2c0.3-0.2,0.4-0.5,0.4-0.9c0-0.4-0.1-0.7-0.4-0.8S7.7,4.5,7.2,4.5C7.2,4.5,5.5,4.5,5.5,4.5z"/>
		<path class="st2" d="M17.9,3.1v1.5h-4.3v1.7h3.9v1.4h-3.9v2H18v1.5h-6.1v-8H17.9z"/>
		<path class="st2" d="M27.3,5.1h-1.5c-0.1-0.6-0.5-0.9-1-0.9c-0.6,0-1,0.4-1.3,1.1c-0.1,0.3-0.2,0.7-0.2,1.3    C23.5,6.3,23.8,6,24,5.9c0.3-0.1,0.6-0.2,1-0.2c0.8,0,1.4,0.3,1.8,0.8c0.4,0.5,0.7,1.1,0.7,1.9c0,0.9-0.3,1.6-0.9,2.2    c-0.5,0.5-1.2,0.7-1.9,0.7c-0.9,0-1.7-0.4-2.2-1.1c-0.5-0.7-0.8-1.7-0.8-3c0-1.4,0.3-2.4,0.8-3.2c0.5-0.7,1.3-1.1,2.2-1.1    c0.9,0,1.6,0.3,2,0.9C27.1,4.1,27.3,4.6,27.3,5.1z M24.6,6.9c-0.4,0-0.7,0.2-0.9,0.5c-0.2,0.3-0.3,0.6-0.3,1c0,0.4,0.1,0.7,0.3,1    c0.2,0.3,0.5,0.5,0.9,0.5c0.4,0,0.7-0.2,0.9-0.5c0.2-0.3,0.3-0.6,0.3-1c0-0.4-0.1-0.7-0.3-1C25.4,7.1,25,6.9,24.6,6.9z"/>
	</g>
</g>
</svg>