<?xml version="1.0" encoding="UTF-8"?>
<!-- Generator: Adobe Illustrator 26.0.1, SVG Export Plug-In . SVG Version: 6.00 Build 0)  -->
<svg version="1.1" id="Layer_1" xmlns="http://www.w3.org/2000/svg" xmlns:xlink="http://www.w3.org/1999/xlink" x="0px" y="0px" viewBox="0 0 37.4 14" style="enable-background:new 0 0 37.4 14;" xml:space="preserve">
<style type="text/css">
	.st0{fill:#565655;}
	.st1{enable-background:new    ;}
	.st2{fill:#FFFFFF;}
</style>
<g>
	<path class="st0" d="M34.4,14H3c-1.7,0-3-1.3-3-3V3c0-1.7,1.3-3,3-3h31.4c1.7,0,3,1.3,3,3v8C37.4,12.7,36.1,14,34.4,14z"/>
</g>
<g>
	<g class="st1">
		<path class="st2" d="M3.7,3.1h3.9c0.8,0,1.4,0.1,1.8,0.4c0.3,0.2,0.6,0.5,0.8,0.8s0.3,0.7,0.3,1.1c0,0.5-0.1,0.9-0.3,1.2    C9.9,6.9,9.5,7.2,9.1,7.3C9.5,7.4,9.8,7.6,10,7.9c0.1,0.2,0.2,0.4,0.3,0.6c0,0.2,0.1,0.7,0.2,1.4c0.1,0.6,0.1,0.9,0.2,1l0.1,0.1    H8.9c-0.1-0.1-0.1-0.3-0.1-0.4c0-0.2-0.1-0.6-0.1-1.2c0-0.6-0.2-1-0.4-1.2C8,8,7.6,7.9,7,7.9H5.5v3.1H3.7V3.1z M5.5,4.5v2.2h1.7    c0.5,0,0.9-0.1,1.1-0.2c0.3-0.2,0.4-0.5,0.4-0.9c0-0.4-0.1-0.7-0.4-0.8S7.7,4.5,7.2,4.5H5.5z"/>
		<path class="st2" d="M17.9,3.1v1.5h-4.3v1.7h3.9v1.4h-3.9v2H18v1.5h-6.1v-8H17.9z"/>
		<path class="st2" d="M23.1,6.8c-0.4-0.1-0.7-0.3-0.9-0.6S22,5.5,22,5.1c0-0.7,0.3-1.2,0.9-1.7c0.5-0.4,1.1-0.5,1.8-0.5    c0.8,0,1.4,0.2,1.9,0.7C27,4,27.2,4.5,27.2,5.1c0,0.4-0.1,0.8-0.3,1.1s-0.5,0.5-0.9,0.7c0.3,0.1,0.5,0.2,0.7,0.3    c0.5,0.4,0.8,0.9,0.8,1.6c0,0.8-0.3,1.5-0.9,1.9c-0.5,0.4-1.2,0.6-2,0.6c-0.9,0-1.6-0.2-2.1-0.7c-0.6-0.5-0.8-1.1-0.8-1.8    c0-0.7,0.2-1.2,0.7-1.6C22.6,7,22.8,6.9,23.1,6.8z M24.6,7.4c-0.4,0-0.7,0.1-1,0.4c-0.2,0.2-0.4,0.6-0.4,0.9c0,0.4,0.1,0.7,0.4,1    c0.3,0.2,0.6,0.4,1,0.4c0.5,0,0.8-0.1,1-0.4C25.9,9.3,26,9,26,8.7c0-0.4-0.1-0.7-0.4-1C25.3,7.5,25,7.4,24.6,7.4z M24.6,4.1    c-0.4,0-0.6,0.1-0.8,0.3c-0.2,0.2-0.3,0.5-0.3,0.8c0,0.3,0.1,0.6,0.3,0.8c0.2,0.2,0.5,0.3,0.9,0.3c0.4,0,0.7-0.1,0.9-0.3    c0.2-0.2,0.3-0.5,0.3-0.8c0-0.3-0.1-0.6-0.3-0.8C25.3,4.2,25,4.1,24.6,4.1z"/>
		<path class="st2" d="M30.9,2.9c0.6,0,1.1,0.2,1.6,0.6c0.5,0.4,0.8,0.9,1,1.7c0.2,0.6,0.2,1.2,0.2,1.9c0,1.1-0.2,2.1-0.6,2.8    c-0.2,0.4-0.6,0.8-0.9,1c-0.4,0.2-0.8,0.3-1.3,0.3c-0.7,0-1.2-0.2-1.7-0.6c-0.8-0.7-1.2-1.9-1.2-3.6c0-1.2,0.2-2.2,0.6-2.9    c0.2-0.4,0.6-0.7,1-1C29.9,3,30.4,2.9,30.9,2.9z M30.8,4.2c-0.5,0-0.9,0.3-1.1,0.9c-0.1,0.5-0.2,1.2-0.2,2c0,0.8,0.1,1.4,0.2,1.8    c0.2,0.6,0.6,0.9,1.1,0.9c0.4,0,0.8-0.2,1-0.7C32,8.8,32.1,8,32.1,7.1c0-0.8-0.1-1.5-0.2-1.9C31.7,4.5,31.3,4.2,30.8,4.2z"/>
	</g>
</g>
</svg>