<svg version="1.1" id="Layer_1" xmlns="http://www.w3.org/2000/svg" xmlns:xlink="http://www.w3.org/1999/xlink" x="0px" y="0px" viewBox="0 0 37.400002 14" enable-background="new 0 0 37.400002 14" xml:space="preserve">
<g>
	<path fill="#565655" d="M34.400002,14H3c-1.656854,0-3-1.343145-3-3V3c0-1.656854,1.343146-3,3-3h31.400002   c1.656853,0,3,1.343146,3,3v8C37.400002,12.656855,36.056854,14,34.400002,14z"/>
</g>
<g>
	<g enable-background="new    ">
		<path fill="#FFFFFF" d="M9.716309,3.086609v1.476562H7.288086v6.519043H5.543457V4.563171H3.126465V3.086609H9.716309z"/>
		<path fill="#FFFFFF" d="M17.53125,6.772156v4.310059h-1.115723l-0.175293-0.913086    c-0.590332,0.736328-1.387207,1.104492-2.389648,1.104492c-1.221191,0-2.185547-0.452148-2.893066-1.356445    c-0.586914-0.754883-0.880371-1.685547-0.880371-2.794434c0-1.257812,0.382812-2.288086,1.148438-3.089844    c0.718262-0.758789,1.645996-1.137695,2.783691-1.137695c1.049805,0,1.904785,0.338867,2.564941,1.016602    c0.492188,0.510742,0.774414,1.112305,0.847656,1.804688h-1.689941c-0.087402-0.429688-0.283691-0.765625-0.587891-1.005859    c-0.304688-0.240234-0.689941-0.361328-1.156738-0.361328c-0.70752,0-1.254395,0.273438-1.640625,0.820312    c-0.338867,0.478516-0.508789,1.123047-0.508789,1.936523c0,0.79541,0.158691,1.42627,0.476074,1.89209    c0.390137,0.573242,0.96582,0.859375,1.728027,0.859375c0.550293,0,1.001465-0.166016,1.353516-0.498047    c0.351562-0.332031,0.536621-0.767578,0.555176-1.306641H14.17334V6.772156H17.53125z"/>
		<path fill="#FFFFFF" d="M25.148438,3.086609l-2.657227,7.995605h-1.985352L17.88623,3.086609h1.82666l1.798828,5.98877    l1.827148-5.98877H25.148438z"/>
	</g>
</g>
</svg>